[img]http://leetleech.org/images/54060243827960796274.jpg[/img]
 
http://www.imdb.com/title/tt1319716/


User Rating:
5.1/10   269 votes 

Director:
Gurinder Chadha

Writers:
Paul Mayeda Berges (screenplay)
Gurinder Chadha (screenplay)

Release Date:
2010 (Australia)

Genre:
Comedy | Horror

Plot:
A comedy centered on an Indian mother who takes her obsession 
with marriage into the world of serial murder. 

Video
ID                               : 0
Format                           : MPEG-4 Visual
Format profile                   : Advanced Simple@L5
Format settings, BVOP            : Yes
Format settings, QPel            : No
Format settings, GMC             : No warppoints
Format settings, Matrix          : Default (H.263)
Muxing mode                      : Packed bitstream
Codec ID                         : XVID
Codec ID/Hint                    : XviD
Duration                         : 1h 36mn
Bit rate                         : 885 Kbps
Width                            : 656 pixels
Height                           : 272 pixels
Display aspect ratio             : 2.40:1
Frame rate                       : 25.000 fps
Color space                      : YUV
Chroma subsampling               : 4:2:0
Bit depth                        : 8 bits
Scan type                        : Progressive
Bits/(Pixel*Frame)               : 0.198
Stream size                      : 609 MiB (87%)
Writing library                  : XviD 1.2.1 (UTC 2008-12-04)

Audio
ID                               : 1
Format                           : MPEG Audio
Format version                   : Version 1
Format profile                   : Layer 3
Mode                             : Joint stereo
Codec ID                         : 55
Codec ID/Hint                    : MP3
Duration                         : 1h 36mn
Bit rate mode                    : Constant
Bit rate                         : 128 Kbps
Channel(s)                       : 2 channels
Sampling rate                    : 48.0 KHz
Stream size                      : 88.1 MiB (13%)
Alignment                        : Aligned on interleaves
Interleave, duration             : 40 ms (1.00 video frame)
Interleave, preload duration     : 504 ms

[img]http://leetleech.org/images/09689591712180492712.png[/img]
[img]http://leetleech.org/images/81072237498222254288.png[/img]
[img]http://leetleech.org/images/24722518979771467891.png[/img]
[img]http://leetleech.org/images/22508972955062673865.png[/img]
[img]http://leetleech.org/images/66475029764448439295.png[/img]
[img]http://leetleech.org/images/63373641792087867687.png[/img]

Greets out to my friends at 1337x, extratorrent, noir, blackjesus